<svg id="Layer_1" data-name="Layer 1" xmlns="http://www.w3.org/2000/svg" viewBox="0 0 193.34 101.74"><defs><style>.cls-1,.cls-10,.cls-11,.cls-12,.cls-13,.cls-14,.cls-15,.cls-16,.cls-17,.cls-18,.cls-19,.cls-2,.cls-20,.cls-21,.cls-22,.cls-23,.cls-24,.cls-25,.cls-26,.cls-27,.cls-28,.cls-29,.cls-3,.cls-30,.cls-31,.cls-32,.cls-33,.cls-34,.cls-35,.cls-4,.cls-5,.cls-6,.cls-7,.cls-8,.cls-9{fill:none;stroke-linecap:round;stroke-linejoin:round;}.cls-1,.cls-10,.cls-11,.cls-12,.cls-13,.cls-14,.cls-15,.cls-16,.cls-17,.cls-18,.cls-19,.cls-2,.cls-20,.cls-21,.cls-22,.cls-23,.cls-24,.cls-25,.cls-26,.cls-27,.cls-28,.cls-29,.cls-3,.cls-30,.cls-31,.cls-32,.cls-4,.cls-5,.cls-6,.cls-7,.cls-8,.cls-9{stroke:#ff0027;}.cls-1{stroke-width:43.75px;opacity:0;}.cls-2{stroke-width:42.5px;opacity:0;}.cls-3{stroke-width:41.25px;opacity:0;}.cls-4{stroke-width:40px;opacity:0;}.cls-5{stroke-width:38.75px;opacity:0;}.cls-6{stroke-width:37.5px;opacity:0;}.cls-7{stroke-width:36.25px;opacity:0;}.cls-8{stroke-width:35px;opacity:0;}.cls-9{stroke-width:33.75px;opacity:0.01;}.cls-10{stroke-width:32.5px;opacity:0.01;}.cls-11{stroke-width:31.25px;opacity:0.01;}.cls-12{stroke-width:30px;opacity:0.01;}.cls-13{stroke-width:28.75px;opacity:0.01;}.cls-14{stroke-width:27.5px;opacity:0.01;}.cls-15{stroke-width:26.25px;opacity:0.02;}.cls-16{stroke-width:25px;opacity:0.02;}.cls-17{stroke-width:23.75px;opacity:0.02;}.cls-18{stroke-width:22.5px;opacity:0.02;}.cls-19{stroke-width:21.25px;opacity:0.03;}.cls-20{stroke-width:20px;opacity:0.03;}.cls-21{stroke-width:18.75px;opacity:0.03;}.cls-22{stroke-width:17.5px;opacity:0.04;}.cls-23{stroke-width:16.25px;opacity:0.04;}.cls-24{stroke-width:15px;opacity:0.05;}.cls-25{stroke-width:13.75px;opacity:0.05;}.cls-26{stroke-width:12.5px;opacity:0.06;}.cls-27{stroke-width:11.25px;opacity:0.07;}.cls-28{stroke-width:10px;opacity:0.08;}.cls-29{stroke-width:8.75px;opacity:0.09;}.cls-30{stroke-width:7.5px;opacity:0.1;}.cls-31{stroke-width:6.25px;opacity:0.15;}.cls-32{stroke-width:5px;}.cls-33{stroke:#ffbec8;stroke-width:3.57px;}.cls-34{stroke:#fff0f3;stroke-width:2.14px;}.cls-35{stroke:#fff;stroke-width:0.71px;}</style></defs><path class="cls-1" d="M175.35,54.59a2.94,2.94,0,0,0,0-4.92l-30.44-20-16.83-11a2.94,2.94,0,0,0-4.56,2.45V34.93a2.94,2.94,0,0,1-2.94,2.94L17.41,37.33V66.48l103.17-.09,2.94,3V83.19a3,3,0,0,0,4.56,2.46l16.83-11.06Z"/><path class="cls-2" d="M175.35,54.59a2.94,2.94,0,0,0,0-4.92l-30.44-20-16.83-11a2.94,2.94,0,0,0-4.56,2.45V34.93a2.94,2.94,0,0,1-2.94,2.94L17.41,37.33V66.48l103.17-.09,2.94,3V83.19a3,3,0,0,0,4.56,2.46l16.83-11.06Z"/><path class="cls-3" d="M175.35,54.59a2.94,2.94,0,0,0,0-4.92l-30.44-20-16.83-11a2.94,2.94,0,0,0-4.56,2.45V34.93a2.94,2.94,0,0,1-2.94,2.94L17.41,37.33V66.48l103.17-.09,2.94,3V83.19a3,3,0,0,0,4.56,2.46l16.83-11.06Z"/><path class="cls-4" d="M175.35,54.59a2.94,2.94,0,0,0,0-4.92l-30.44-20-16.83-11a2.94,2.94,0,0,0-4.56,2.45V34.93a2.94,2.94,0,0,1-2.94,2.94L17.41,37.33V66.48l103.17-.09,2.94,3V83.19a3,3,0,0,0,4.56,2.46l16.83-11.06Z"/><path class="cls-5" d="M175.35,54.59a2.94,2.94,0,0,0,0-4.92l-30.44-20-16.83-11a2.94,2.94,0,0,0-4.56,2.45V34.93a2.94,2.94,0,0,1-2.94,2.94L17.41,37.33V66.48l103.17-.09,2.94,3V83.19a3,3,0,0,0,4.56,2.46l16.83-11.06Z"/><path class="cls-6" d="M175.35,54.59a2.94,2.94,0,0,0,0-4.92l-30.44-20-16.83-11a2.94,2.94,0,0,0-4.56,2.45V34.93a2.94,2.94,0,0,1-2.94,2.94L17.41,37.33V66.48l103.17-.09,2.94,3V83.19a3,3,0,0,0,4.56,2.46l16.83-11.06Z"/><path class="cls-7" d="M175.35,54.59a2.94,2.94,0,0,0,0-4.92l-30.44-20-16.83-11a2.94,2.94,0,0,0-4.56,2.45V34.93a2.94,2.94,0,0,1-2.94,2.94L17.41,37.33V66.48l103.17-.09,2.94,3V83.19a3,3,0,0,0,4.56,2.46l16.83-11.06Z"/><path class="cls-8" d="M175.35,54.59a2.94,2.94,0,0,0,0-4.92l-30.44-20-16.83-11a2.94,2.94,0,0,0-4.56,2.45V34.93a2.94,2.94,0,0,1-2.94,2.94L17.41,37.33V66.48l103.17-.09,2.94,3V83.19a3,3,0,0,0,4.56,2.46l16.83-11.06Z"/><path class="cls-9" d="M175.35,54.59a2.94,2.94,0,0,0,0-4.92l-30.44-20-16.83-11a2.94,2.94,0,0,0-4.56,2.45V34.93a2.94,2.94,0,0,1-2.94,2.94L17.41,37.33V66.48l103.17-.09,2.94,3V83.19a3,3,0,0,0,4.56,2.46l16.83-11.06Z"/><path class="cls-10" d="M175.35,54.59a2.94,2.94,0,0,0,0-4.92l-30.44-20-16.83-11a2.94,2.94,0,0,0-4.56,2.45V34.93a2.94,2.94,0,0,1-2.94,2.94L17.41,37.33V66.48l103.17-.09,2.94,3V83.19a3,3,0,0,0,4.56,2.46l16.83-11.06Z"/><path class="cls-11" d="M175.35,54.59a2.94,2.94,0,0,0,0-4.92l-30.44-20-16.83-11a2.94,2.94,0,0,0-4.56,2.45V34.93a2.94,2.94,0,0,1-2.94,2.94L17.41,37.33V66.48l103.17-.09,2.94,3V83.19a3,3,0,0,0,4.56,2.46l16.83-11.06Z"/><path class="cls-12" d="M175.35,54.59a2.94,2.94,0,0,0,0-4.92l-30.44-20-16.83-11a2.94,2.94,0,0,0-4.56,2.45V34.93a2.94,2.94,0,0,1-2.94,2.94L17.41,37.33V66.48l103.17-.09,2.94,3V83.19a3,3,0,0,0,4.56,2.46l16.83-11.06Z"/><path class="cls-13" d="M175.35,54.59a2.94,2.94,0,0,0,0-4.92l-30.44-20-16.83-11a2.94,2.94,0,0,0-4.56,2.45V34.93a2.94,2.94,0,0,1-2.94,2.94L17.41,37.33V66.48l103.17-.09,2.94,3V83.19a3,3,0,0,0,4.56,2.46l16.83-11.06Z"/><path class="cls-14" d="M175.35,54.59a2.94,2.94,0,0,0,0-4.92l-30.44-20-16.83-11a2.94,2.94,0,0,0-4.56,2.45V34.93a2.94,2.94,0,0,1-2.94,2.94L17.41,37.33V66.48l103.17-.09,2.94,3V83.19a3,3,0,0,0,4.56,2.46l16.83-11.06Z"/><path class="cls-15" d="M175.35,54.59a2.94,2.94,0,0,0,0-4.92l-30.44-20-16.83-11a2.94,2.94,0,0,0-4.56,2.45V34.93a2.94,2.94,0,0,1-2.94,2.94L17.41,37.33V66.48l103.17-.09,2.94,3V83.19a3,3,0,0,0,4.56,2.46l16.83-11.06Z"/><path class="cls-16" d="M175.35,54.59a2.94,2.94,0,0,0,0-4.92l-30.44-20-16.83-11a2.94,2.94,0,0,0-4.56,2.45V34.93a2.94,2.94,0,0,1-2.94,2.94L17.41,37.33V66.48l103.17-.09,2.94,3V83.19a3,3,0,0,0,4.56,2.46l16.83-11.06Z"/><path class="cls-17" d="M175.35,54.59a2.94,2.94,0,0,0,0-4.92l-30.44-20-16.83-11a2.94,2.94,0,0,0-4.56,2.45V34.93a2.94,2.94,0,0,1-2.94,2.94L17.41,37.33V66.48l103.17-.09,2.94,3V83.19a3,3,0,0,0,4.56,2.46l16.83-11.06Z"/><path class="cls-18" d="M175.35,54.59a2.94,2.94,0,0,0,0-4.92l-30.44-20-16.83-11a2.94,2.94,0,0,0-4.56,2.45V34.93a2.94,2.94,0,0,1-2.94,2.94L17.41,37.33V66.48l103.17-.09,2.94,3V83.19a3,3,0,0,0,4.56,2.46l16.83-11.06Z"/><path class="cls-19" d="M175.35,54.59a2.94,2.94,0,0,0,0-4.92l-30.44-20-16.83-11a2.94,2.94,0,0,0-4.56,2.45V34.93a2.94,2.94,0,0,1-2.94,2.94L17.41,37.33V66.48l103.17-.09,2.94,3V83.19a3,3,0,0,0,4.56,2.46l16.83-11.06Z"/><path class="cls-20" d="M175.35,54.59a2.94,2.94,0,0,0,0-4.92l-30.44-20-16.83-11a2.94,2.94,0,0,0-4.56,2.45V34.93a2.94,2.94,0,0,1-2.94,2.94L17.41,37.33V66.48l103.17-.09,2.94,3V83.19a3,3,0,0,0,4.56,2.46Z"/><path class="cls-21" d="M175.35,54.59a2.94,2.94,0,0,0,0-4.92l-30.44-20-16.83-11a2.94,2.94,0,0,0-4.56,2.45V34.93a2.94,2.94,0,0,1-2.94,2.94L17.41,37.33V66.48l103.17-.09,2.94,3V83.19a3,3,0,0,0,4.56,2.46l16.83-11.06Z"/><path class="cls-22" d="M175.35,54.59a2.94,2.94,0,0,0,0-4.92l-30.44-20-16.83-11a2.94,2.94,0,0,0-4.56,2.45V34.93a2.94,2.94,0,0,1-2.94,2.94L17.41,37.33V66.48l103.17-.09,2.94,3V83.19a3,3,0,0,0,4.56,2.46l16.83-11.06Z"/><path class="cls-23" d="M175.35,54.59a2.94,2.94,0,0,0,0-4.92l-30.44-20-16.83-11a2.94,2.94,0,0,0-4.56,2.45V34.93a2.94,2.94,0,0,1-2.94,2.94L17.41,37.33V66.48l103.17-.09,2.94,3V83.19a3,3,0,0,0,4.56,2.46l16.83-11.06Z"/><path class="cls-24" d="M175.35,54.59a2.94,2.94,0,0,0,0-4.92l-30.44-20-16.83-11a2.94,2.94,0,0,0-4.56,2.45V34.93a2.94,2.94,0,0,1-2.94,2.94L17.41,37.33V66.48l103.17-.09,2.94,3V83.19a3,3,0,0,0,4.56,2.46l16.83-11.06Z"/><path class="cls-25" d="M175.35,54.59a2.94,2.94,0,0,0,0-4.92l-30.44-20-16.83-11a2.94,2.94,0,0,0-4.56,2.45V34.93a2.94,2.94,0,0,1-2.94,2.94L17.41,37.33V66.48l103.17-.09,2.94,3V83.19a3,3,0,0,0,4.56,2.46l16.83-11.06Z"/><path class="cls-26" d="M175.35,54.59a2.94,2.94,0,0,0,0-4.92l-30.44-20-16.83-11a2.94,2.94,0,0,0-4.56,2.45V34.93a2.94,2.94,0,0,1-2.94,2.94L17.41,37.33V66.48l103.17-.09,2.94,3V83.19a3,3,0,0,0,4.56,2.46l16.83-11.06Z"/><path class="cls-27" d="M175.35,54.59a2.94,2.94,0,0,0,0-4.92l-30.44-20-16.83-11a2.94,2.94,0,0,0-4.56,2.45V34.93a2.94,2.94,0,0,1-2.94,2.94L17.41,37.33V66.48l103.17-.09,2.94,3V83.19a3,3,0,0,0,4.56,2.46l16.83-11.06Z"/><path class="cls-28" d="M175.35,54.59a2.94,2.94,0,0,0,0-4.92l-30.44-20-16.83-11a2.94,2.94,0,0,0-4.56,2.45V34.93a2.94,2.94,0,0,1-2.94,2.94L17.41,37.33V66.48l103.17-.09,2.94,3V83.19a3,3,0,0,0,4.56,2.46l16.83-11.06Z"/><path class="cls-29" d="M175.35,54.59a2.94,2.94,0,0,0,0-4.92l-30.44-20-16.83-11a2.94,2.94,0,0,0-4.56,2.45V34.93a2.94,2.94,0,0,1-2.94,2.94L17.41,37.33V66.48l103.17-.09,2.94,3V83.19a3,3,0,0,0,4.56,2.46l16.83-11.06Z"/><path class="cls-30" d="M175.35,54.59a2.94,2.94,0,0,0,0-4.92l-30.44-20-16.83-11a2.94,2.94,0,0,0-4.56,2.45V34.93a2.94,2.94,0,0,1-2.94,2.94L17.41,37.33V66.48l103.17-.09,2.94,3V83.19a3,3,0,0,0,4.56,2.46l16.83-11.06Z"/><path class="cls-31" d="M175.35,54.59a2.94,2.94,0,0,0,0-4.92l-30.44-20-16.83-11a2.94,2.94,0,0,0-4.56,2.45V34.93a2.94,2.94,0,0,1-2.94,2.94L17.41,37.33V66.48l103.17-.09,2.94,3V83.19a3,3,0,0,0,4.56,2.46l16.83-11.06Z"/><path class="cls-32" d="M175.35,54.59a2.94,2.94,0,0,0,0-4.92l-30.44-20-16.83-11a2.94,2.94,0,0,0-4.56,2.45V34.93a2.94,2.94,0,0,1-2.94,2.94L17.41,37.33V66.48l103.17-.09,2.94,3V83.19a3,3,0,0,0,4.56,2.46l16.83-11.06Z"/><path class="cls-33" d="M175.35,54.59a2.94,2.94,0,0,0,0-4.92l-30.44-20-16.83-11a2.94,2.94,0,0,0-4.56,2.45V34.93a2.94,2.94,0,0,1-2.94,2.94L17.41,37.33V66.48l103.17-.09,2.94,3V83.19a3,3,0,0,0,4.56,2.46l16.83-11.06Z"/><path class="cls-34" d="M175.35,54.59a2.94,2.94,0,0,0,0-4.92l-30.44-20-16.83-11a2.94,2.94,0,0,0-4.56,2.45V34.93a2.94,2.94,0,0,1-2.94,2.94L17.41,37.33V66.48l103.17-.09,2.94,3V83.19a3,3,0,0,0,4.56,2.46l16.83-11.06Z"/><path class="cls-35" d="M175.35,54.59a2.94,2.94,0,0,0,0-4.92l-30.44-20-16.83-11a2.94,2.94,0,0,0-4.56,2.45V34.93a2.94,2.94,0,0,1-2.94,2.94L17.41,37.33V66.48l103.17-.09,2.94,3V83.19a3,3,0,0,0,4.56,2.46l16.83-11.06Z"/></svg>