<svg id="Layer_1" data-name="Layer 1" xmlns="http://www.w3.org/2000/svg" viewBox="0 0 1651.49 1065.96"><defs><style>.cls-1{fill:#6fa590;}</style></defs><path class="cls-1" d="M1650,532.17,1319.15,355.41V0L1650,174.86Z"/><path class="cls-1" d="M330.47,1.62,0,179,.7,534.44,331.17,358.93Z"/><path class="cls-1" d="M332.56,1066,1.39,889.85.7,534.44l331.16,174.2Z"/><path class="cls-1" d="M660.29,1,329.82,178.38l.7,355.41L661,358.29Z"/><path class="cls-1" d="M662.38,1065.31,331.21,889.2l-.69-355.41L661.68,708Z"/><path class="cls-1" d="M658.29,1,989.46,177.08l.7,355.41L659,358.29Z"/><path class="cls-1" d="M660.38,1065.31l330.47-177.4-.69-355.42L659.68,708Z"/><path class="cls-1" d="M988.11.32l331.17,176.11.7,355.42L988.81,357.64Z"/><path class="cls-1" d="M990.2,1064.66l330.47-177.4L1320,531.85,989.5,707.35Z"/><path class="cls-1" d="M1318.63,531.44l331.16,176.11.7,355.41L1319.33,888.75Z"/></svg>