<?xml version="1.0" encoding="utf-8"?>
<!-- Generator: Adobe Illustrator 25.2.0, SVG Export Plug-In . SVG Version: 6.00 Build 0)  -->
<svg version="1.1" id="Capa_1" xmlns="http://www.w3.org/2000/svg" xmlns:xlink="http://www.w3.org/1999/xlink" x="0px" y="0px"
	 viewBox="0 0 19.9 19.9" style="enable-background:new 0 0 19.9 19.9;" xml:space="preserve">
<style type="text/css">
	.st0{fill:#FFFFFF;}
</style>
<g>
	<path class="st0" d="M19.9,9.4V9c-1.3-0.7-2.3-1.7-2.7-3l0,0v0h-1.3v0l0,0C15,8.3,12.6,9.5,9.9,9.5C7.2,9.5,4.9,8.3,4,6l0,0v0H2.7
		v0.1C2.3,7.3,1.3,8.4,0,9v0.4C0.2,9.3,0.4,9.2,0.7,9v1.7H0v0.7h2.7v2.4H4v-2.4h11.8v2.4h1.3v-2.4h2.8v-0.7h-0.7V9
		C19.4,9.2,19.7,9.3,19.9,9.4z M1.8,10.8h-1V8.9c0.4-0.2,0.7-0.5,1-0.9V10.8z M2.7,10.8H2V7.9c0.3-0.3,0.5-0.6,0.7-1V10.8z
		 M4.8,10.8H4V6.9c0.2,0.4,0.5,0.7,0.8,1.1V10.8z M6.2,10.8H5V8.1C5.4,8.5,5.8,8.7,6.2,9V10.8z M7.7,10.8H6.4V9.1
		c0.4,0.2,0.8,0.3,1.2,0.4V10.8z M9.1,10.8H7.8V9.6c0.4,0.1,0.8,0.2,1.2,0.2V10.8z M10.5,10.8H9.3v-1c0.2,0,0.4,0,0.7,0
		c0.2,0,0.4,0,0.6,0C10.5,9.8,10.5,10.8,10.5,10.8z M12,10.8h-1.2v-1c0.4,0,0.8-0.1,1.2-0.2V10.8z M13.4,10.8h-1.2V9.5
		c0.4-0.1,0.9-0.2,1.2-0.4V10.8z M14.8,10.8h-1.3V9c0.5-0.2,0.9-0.5,1.3-0.8V10.8z M15.8,10.8H15V8c0.3-0.3,0.6-0.7,0.8-1.1V10.8z
		 M17.9,10.8h-0.8V6.9c0.2,0.4,0.5,0.7,0.8,1V10.8z M19.1,10.8h-1V8.1c0.3,0.3,0.6,0.6,1,0.9V10.8z"/>
</g>
</svg>
